<?xml version="1.0" ?><!DOCTYPE svg  PUBLIC '-//W3C//DTD SVG 1.1//EN'  'http://www.w3.org/Graphics/SVG/1.1/DTD/svg11.dtd'><svg enable-background="new 0 0 24 24" height="24px" id="Layer_1" version="1.1" viewBox="0 0 24 24" width="24px" xml:space="preserve" xmlns="http://www.w3.org/2000/svg" xmlns:xlink="http://www.w3.org/1999/xlink"><g><path d="M16.5,23.5H7.5C7.3,23.5,7,23.3,7,23v-2c0-0.3,0.2-0.5,0.5-0.5h1.4v-17H7.5C7.3,3.5,7,3.3,7,3V1c0-0.3,0.2-0.5,0.5-0.5h8.9   C16.7,0.5,17,0.7,17,1v2c0,0.3-0.2,0.5-0.5,0.5h-1.4v17h1.4c0.3,0,0.5,0.2,0.5,0.5v2C17,23.3,16.7,23.5,16.5,23.5z"/></g></svg>